<?xml version="1.0" encoding="UTF-8" standalone="no"?>
<svg
   xmlns:dc="http://purl.org/dc/elements/1.1/"
   xmlns:cc="http://creativecommons.org/ns#"
   xmlns:rdf="http://www.w3.org/1999/02/22-rdf-syntax-ns#"
   xmlns:svg="http://www.w3.org/2000/svg"
   xmlns="http://www.w3.org/2000/svg"
   xmlns:sodipodi="http://sodipodi.sourceforge.net/DTD/sodipodi-0.dtd"
   xmlns:inkscape="http://www.inkscape.org/namespaces/inkscape"
   width="52.432686mm"
   height="135.46666mm"
   viewBox="0 0 52.432686 135.46666"
   version="1.1"
   id="svg3115"
   inkscape:version="1.0.2-2 (e86c870879, 2021-01-15)"
   sodipodi:docname="watterbottle.svg">
  <defs
     id="defs3109" />
  <sodipodi:namedview
     id="base"
     pagecolor="#ffffff"
     bordercolor="#666666"
     borderopacity="1.0"
     inkscape:pageopacity="0.0"
     inkscape:pageshadow="2"
     inkscape:zoom="0.35"
     inkscape:cx="84.56585"
     inkscape:cy="759.44261"
     inkscape:document-units="mm"
     inkscape:current-layer="layer1"
     inkscape:document-rotation="0"
     showgrid="false"
     inkscape:window-width="1366"
     inkscape:window-height="728"
     inkscape:window-x="0"
     inkscape:window-y="0"
     inkscape:window-maximized="0" />
  <metadata
     id="metadata3112">
    <rdf:RDF>
      <cc:Work
         rdf:about="">
        <dc:format>image/svg+xml</dc:format>
        <dc:type
           rdf:resource="http://purl.org/dc/dcmitype/StillImage" />
        <dc:title></dc:title>
      </cc:Work>
    </rdf:RDF>
  </metadata>
  <g
     inkscape:label="Layer 1"
     inkscape:groupmode="layer"
     id="layer1"
     transform="translate(-83.458619,52.76919)">
    <path
       style="fill:#000000;stroke-width:0.273103"
       d="m 93.360572,82.276296 c -4.800656,-1.042987 -8.475401,-4.773903 -9.510099,-9.655505 -0.472788,-2.230554 -0.535608,-11.937318 -0.08774,-13.554382 0.166411,-0.600824 0.542782,-1.43037 0.836381,-1.843448 0.529673,-0.745217 0.529673,-0.756838 0,-1.502066 -0.930683,-1.309407 -1.138961,-2.770145 -1.138961,-7.988255 0,-5.218099 0.208278,-6.678848 1.138961,-7.988255 0.529673,-0.745217 0.529673,-0.756851 0,-1.502068 -0.928134,-1.305804 -1.138909,-2.772445 -1.140478,-7.93559 -0.0021,-6.28846 0.186457,-7.103837 2.078262,-8.995643 0.789209,-0.789207 1.627283,-1.43493 1.862387,-1.43493 0.378776,0 0.427455,-0.972241 0.427331,-8.534456 L 87.826496,2.8072347 86.483016,1.650262 C 85.663253,0.94430079 84.838237,-0.1203111 84.366604,-1.0807671 l -0.772942,-1.5740592 v -5.7351585 c 0,-6.3270742 0.26992,-7.7958532 2.106152,-11.4606942 2.064513,-4.120467 4.302465,-6.454011 9.569121,-9.977876 l 3.469449,-2.321374 0.0062,-8.476595 c 0.0062,-8.2411 0.02334,-8.510448 0.620723,-9.695149 0.448892,-0.890192 0.942843,-1.384139 1.833033,-1.833036 1.1725,-0.591259 1.49285,-0.614481 8.47659,-0.614481 6.98374,0 7.30409,0.02323 8.4766,0.614481 0.89019,0.448897 1.38414,0.942844 1.83303,1.833036 0.59753,1.184931 0.61485,1.456219 0.62787,9.831701 l 0.0134,8.613147 3.43926,2.184822 c 5.22319,3.318078 7.47507,5.630169 9.58503,9.841324 1.83623,3.664841 2.10615,5.13362 2.10615,11.4606942 v 5.7351585 l -0.77294,1.5740592 c -0.47164,0.960456 -1.29665,2.02506789 -2.11642,2.7310291 l -1.34348,1.1569727 -1.2e-4,8.5344633 c -1.2e-4,7.562215 0.0485,8.534456 0.42733,8.534456 0.2351,0 1.07318,0.645723 1.86239,1.43493 1.8918,1.891806 2.08018,2.707183 2.07826,8.995643 -0.002,5.163145 -0.21234,6.629786 -1.14048,7.93559 -0.52967,0.745217 -0.52967,0.756851 0,1.502068 0.93069,1.309407 1.13896,2.770156 1.13896,7.988255 0,5.21811 -0.20827,6.678848 -1.13896,7.988255 -0.52967,0.745228 -0.52967,0.756849 0,1.502066 0.2936,0.413078 0.66997,1.242624 0.83638,1.843448 0.4479,1.617064 0.38508,11.323828 -0.0877,13.554382 -1.04817,4.945144 -4.71655,8.624916 -9.63778,9.667745 -2.60681,0.552394 -29.949671,0.542091 -32.501186,-0.01228 z m 33.260688,-4.667752 c 1.817,-0.840727 3.14016,-2.123597 4.00343,-3.881536 0.75472,-1.536872 0.76282,-1.609899 0.84933,-7.658579 0.086,-6.010891 0.0777,-6.117166 -0.52554,-6.759299 l -0.61287,-0.65237 H 109.71328 89.09094 l -0.632076,0.593804 c -0.621128,0.583512 -0.632089,0.691594 -0.632089,6.231803 0,6.240078 0.225493,7.566445 1.611645,9.479978 0.996167,1.375159 2.214719,2.253705 3.981257,2.870351 1.252696,0.437293 2.693151,0.473141 16.664973,0.41479 14.90424,-0.06224 15.32542,-0.07855 16.53661,-0.638942 z m 4.23162,-23.991777 c 0.66525,-0.665244 0.67035,-0.710279 0.67035,-5.92238 0,-5.016521 -0.0266,-5.280393 -0.59381,-5.884127 l -0.59381,-0.632087 H 109.71328 89.09094 l -0.632076,0.593812 c -0.618826,0.581356 -0.632089,0.705602 -0.632089,5.922381 0,5.095102 0.02601,5.35627 0.593814,5.960665 l 0.593815,0.632077 h 20.584076 20.58406 z m 0,-17.478578 c 0.66525,-0.665253 0.67035,-0.710288 0.67035,-5.922389 0,-5.016521 -0.0266,-5.280382 -0.59381,-5.884116 l -0.59381,-0.63209 H 109.71328 89.09094 l -0.632076,0.593815 c -0.618826,0.581346 -0.632089,0.705602 -0.632089,5.922381 0,5.095102 0.02601,5.35627 0.593814,5.960652 l 0.593815,0.63209 h 20.584076 20.58406 z m -3.6993,-24.45512 V 4.0361925 H 109.675 92.196426 v 7.6468765 7.646884 H 109.675 127.15358 Z m 2.04019,-12.63965658 c 0.59639,-0.33777762 1.37415,-1.04240802 1.72837,-1.56584652 0.63315,-0.9356301 0.6423,-1.0439267 0.54113,-6.4137566 -0.0972,-5.1615313 -0.14345,-5.5651493 -0.83994,-7.3357843 -0.82338,-2.093218 -2.7189,-5.085959 -3.98766,-6.295926 -0.459,-0.437732 -2.95745,-2.234922 -5.5521,-3.993751 l -4.71755,-3.197877 -0.0758,-3.857952 -0.0758,-3.857952 h -6.54697 -6.54696 v 3.819448 3.819447 l -4.438564,2.966901 c -5.873959,3.926383 -7.74446,5.837593 -9.482778,9.68917 -1.212638,2.686838 -1.428574,4.213601 -1.327533,9.3859428 0.103261,5.2853907 0.227962,5.6560111 2.302168,6.84209587 l 1.066737,0.60998894 h 18.43443 18.43444 z M 90.0116,-6.8879188 v -2.1848233 h 2.184826 2.184816 v 2.1848233 2.1848233 H 92.196426 90.0116 Z m 0.0041,-4.9841282 c 0.0072,-1.161459 0.812257,-4.040486 1.519057,-5.435274 1.07873,-2.12878 2.885792,-3.860744 6.721817,-6.442455 1.921476,-1.293196 3.538186,-2.29896 3.592656,-2.23503 0.50319,0.590553 2.09983,3.360527 2.0362,3.532568 -0.0451,0.122042 -1.37664,1.073532 -2.95887,2.114428 -1.582223,1.040893 -3.34139,2.300469 -3.909244,2.799054 -1.286317,1.129396 -2.344248,3.175297 -2.552888,4.936966 l -0.159205,1.344225 h -2.14679 c -2.045419,0 -2.146583,-0.02902 -2.142744,-0.614482 z m 26.21382,-33.250264 v -3.277234 h -6.55447 -6.55446 v 3.277234 3.277233 h 6.55446 6.55447 z"
       id="path3096" />
  </g>
</svg>
