<?xml version="1.0" encoding="UTF-8" standalone="no"?>
<svg
   xmlns:dc="http://purl.org/dc/elements/1.1/"
   xmlns:cc="http://creativecommons.org/ns#"
   xmlns:rdf="http://www.w3.org/1999/02/22-rdf-syntax-ns#"
   xmlns:svg="http://www.w3.org/2000/svg"
   xmlns="http://www.w3.org/2000/svg"
   xmlns:sodipodi="http://sodipodi.sourceforge.net/DTD/sodipodi-0.dtd"
   xmlns:inkscape="http://www.inkscape.org/namespaces/inkscape"
   width="112.01262mm"
   height="135.46666mm"
   viewBox="0 0 112.01262 135.46666"
   version="1.1"
   id="svg4293"
   inkscape:version="1.0.2-2 (e86c870879, 2021-01-15)"
   sodipodi:docname="beercup.svg">
  <defs
     id="defs4287" />
  <sodipodi:namedview
     id="base"
     pagecolor="#ffffff"
     bordercolor="#666666"
     borderopacity="1.0"
     inkscape:pageopacity="0.0"
     inkscape:pageshadow="2"
     inkscape:zoom="0.35"
     inkscape:cx="161.84339"
     inkscape:cy="537.55042"
     inkscape:document-units="mm"
     inkscape:current-layer="layer1"
     inkscape:document-rotation="0"
     showgrid="false"
     inkscape:window-width="1366"
     inkscape:window-height="728"
     inkscape:window-x="0"
     inkscape:window-y="0"
     inkscape:window-maximized="0" />
  <metadata
     id="metadata4290">
    <rdf:RDF>
      <cc:Work
         rdf:about="">
        <dc:format>image/svg+xml</dc:format>
        <dc:type
           rdf:resource="http://purl.org/dc/dcmitype/StillImage" />
        <dc:title></dc:title>
      </cc:Work>
    </rdf:RDF>
  </metadata>
  <g
     inkscape:label="Layer 1"
     inkscape:groupmode="layer"
     id="layer1"
     transform="translate(-63.012271,-5.9397836)">
    <path
       id="path2224"
       style="fill:#000000;stroke-width:1.17409"
       d="m 90.417235,140.20945 c -9.612638,-2.72227 -13.121791,-5.53562 -17.168731,-13.76441 l -3.737859,-7.60032 -0.07791,-25.005617 -0.07791,-25.005618 -3.171268,-2.727831 -3.171286,-2.72783 1.522583,-9.375767 C 65.745053,46.54998 65.76873,42.836619 64.65029,35.903619 62.061606,19.856508 66.28963,15.408034 85.605734,13.855484 c 6.237038,-0.501297 13.3644,-1.774644 15.838576,-2.829666 2.47418,-1.0550048 8.99202,-2.7601916 14.48409,-3.7893219 9.49181,-1.7786106 10.1102,-1.7650838 12.50651,0.2735925 4.16907,3.5468754 5.41799,5.5180774 5.45721,8.6132954 0.0205,1.62047 1.03483,3.569265 2.25398,4.330628 1.67051,1.043247 2.57218,3.888745 3.65951,11.548675 l 1.44281,10.164326 4.2656,-0.719549 c 2.34608,-0.395763 7.29358,-1.037493 10.99447,-1.426037 6.49317,-0.681721 6.86958,-0.565751 10.746,3.310646 7.32817,7.328174 9.75064,23.698911 6.0738,41.046189 -3.70783,17.493478 -12.85275,28.730108 -27.95418,34.348128 -4.92249,1.83127 -5.95955,2.85926 -8.80564,8.72859 -2.82825,5.83252 -4.0714,7.07529 -10.08175,10.07889 -5.97084,2.98388 -8.39543,3.47549 -18.78536,3.80902 -7.36736,0.23649 -13.977391,-0.19696 -17.284142,-1.13344 z m 30.191635,-2.56767 c 3.24005,-0.96219 6.85202,-2.81136 8.02662,-4.1093 2.51483,-2.77884 1.66273,-2.90157 -4.71374,-0.6789 -9.95846,3.47126 -24.640999,3.47458 -38.7168,0.009 -3.488193,-0.85889 -3.501434,-0.84376 -1.370375,1.56306 1.183537,1.33669 4.089396,2.9462 6.457452,3.57671 6.752184,1.7978 23.729093,1.59601 30.316843,-0.36036 z m -21.592277,-0.26716 c 1.784667,-0.26987 4.426367,-0.26265 5.870417,0.0161 1.44405,0.27866 -0.0161,0.49947 -3.24487,0.49066 -3.228733,-0.009 -4.410233,-0.23683 -2.625547,-0.50669 z m 19.885497,-6.34666 c 7.40187,-1.56888 13.58238,-4.52726 16.7306,-8.00829 2.18334,-2.41415 2.27514,-4.2424 1.96627,-39.163255 -0.17815,-20.146978 -0.77707,-37.097278 -1.33079,-37.667336 -0.55373,-0.570057 -1.96688,-0.620376 -3.14034,-0.111681 -1.89079,0.819419 -1.91349,0.977918 -0.19942,1.392872 1.0638,0.25751 2.24533,1.628689 2.62566,3.047025 1.00541,3.749456 0.84577,58.698085 -0.17494,60.226455 -0.47442,0.71035 -1.65508,1.59324 -2.62371,1.96194 -1.20784,0.45979 -0.96192,0.69952 0.78272,0.7631 1.39912,0.0509 2.81035,-0.56773 3.13605,-1.37491 0.32569,-0.8072 0.6339,-0.89928 0.68488,-0.20466 0.10543,1.43605 -3.69247,5.1067 -8.32939,8.05039 -3.09086,1.96216 -3.1299,1.95112 -2.56091,-0.72518 0.50483,-2.37461 0.41198,-2.45833 -0.73542,-0.66308 -1.81185,2.83483 -5.39684,2.57271 -7.58742,-0.55478 -1.53484,-2.19132 -1.82493,-7.22352 -1.8104,-31.406767 0.0189,-31.741219 0.47232,-34.211521 6.47184,-35.273674 2.48853,-0.440578 3.03727,-0.903296 1.91145,-1.611874 -1.14467,-0.720444 -0.29622,-1.568257 3.08389,-3.081584 2.56466,-1.148227 5.04759,-2.709962 5.51764,-3.470521 0.47004,-0.760541 -1.18188,-0.348374 -3.67092,0.915948 -7.05027,3.581184 -17.21056,5.174993 -30.185629,4.735111 l -11.900909,-0.4035 -3.206166,5.870437 -3.206185,5.870419 -0.02752,27.379142 -0.02734,27.379123 -2.641685,-0.37518 C 75.82879,114.15082 75.810314,114.00374 75.493961,90.960297 75.225729,71.422134 74.902318,67.772119 73.43931,67.772119 c -1.479412,0 -1.736297,3.798203 -1.736297,25.671525 0,24.255546 0.135268,25.843476 2.451826,28.788546 6.572082,8.35503 27.457801,12.46049 44.747291,8.79586 z m -9.463,-2.7288 c 13.67384,-2.0975 18.10773,-3.71441 23.46975,-8.55867 2.8423,-2.56784 4.54288,-3.47043 4.54288,-2.41113 0,2.30608 -4.214,5.98765 -10.56675,9.23176 -4.22645,2.15825 -7.51471,2.75763 -16.43719,2.99613 l -11.153806,0.29815 z m -27.17563,-2.70345 c -3.463767,-1.77581 -7.059281,-4.42069 -7.990025,-5.87755 -1.674845,-2.62157 -1.659031,-2.63159 1.536986,-0.97347 1.776073,0.92145 3.908258,1.41478 4.738203,1.0963 0.834679,-0.3203 1.865543,0.54438 2.306908,1.93505 0.438881,1.38274 2.467872,3.53233 4.508889,4.77686 5.547919,3.38287 2.103952,2.73662 -5.100961,-0.95719 z m 28.70479,-2.90293 c 1.00522,-1.43517 1.8277,-3.40192 1.8277,-4.37053 0,-1.20218 -0.5801,-0.93292 -1.8277,0.84828 -2.01355,2.87475 -7.34302,3.53581 -9.67834,1.20051 -2.007444,-2.00744 -2.007444,-63.271692 0,-65.279134 1.81102,-1.811025 5.93794,-1.811025 7.74897,0 1.01483,1.014853 1.4089,1.034223 1.4089,0.06933 0,-0.736793 -0.6551,-1.744498 -1.45577,-2.239345 -1.49571,-0.924382 2.14657,-2.403222 6.5122,-2.644079 1.95904,-0.108107 1.98148,0.08238 0.29352,2.492389 -2.59358,3.702853 -2.65209,63.312789 -0.0666,67.835669 2.43485,4.25932 2.21014,4.69636 -2.41473,4.69636 -4.08077,0 -4.13425,-0.0593 -2.34817,-2.60942 z m -2.99229,-3.69907 c 0.94354,-1.13688 1.2455,-10.53142 1.02434,-31.866585 -0.27995,-27.002767 -0.52842,-30.389822 -2.312,-31.514212 -2.43512,-1.535181 -4.25965,-0.08684 -2.32619,1.846746 1.80883,1.808827 1.96802,57.522921 0.17387,60.875201 -0.93505,1.74715 -0.83279,2.271 0.44327,2.271 0.91227,0 2.26075,-0.72547 2.99664,-1.61215 z m -20.775076,0.20325 c -1.024181,-1.0242 -1.408901,-9.81758 -1.408901,-32.203478 0,-26.429618 0.261513,-31.056085 1.844994,-32.639566 2.182736,-2.182736 2.339662,-2.201463 5.276703,-0.629597 2.158417,1.155143 2.270992,2.773021 2.270992,32.639548 0,32.297193 -0.266731,34.241993 -4.696336,34.241993 -1.033204,0 -2.512544,-0.63402 -3.287452,-1.4089 z m 6.222653,-32.72134 c 0,-27.471524 -0.162072,-29.856466 -2.054651,-30.220941 -1.913272,-0.368459 -2.054634,1.656762 -2.054634,29.4339 0,16.406261 0.363224,30.192801 0.80718,30.636751 2.823626,2.82363 3.302105,-1.50171 3.302105,-29.84971 z m 30.878433,29.19908 c 1.02302,-1.02302 1.4089,-9.70579 1.4089,-31.700296 0,-28.066098 -0.15099,-30.291416 -2.05463,-30.291756 -1.90609,-3.39e-4 -2.05466,2.291756 -2.05466,31.699853 0,17.435119 0.29059,31.700409 0.64576,31.700659 0.35514,2.3e-4 1.27974,-0.63357 2.05463,-1.40846 z m 27.56004,-2.48257 c 13.53498,-7.93203 20.81226,-23.437867 20.81226,-44.345082 0,-17.095915 -5.274,-26.904898 -14.46599,-26.904898 -4.98297,0 -13.37844,2.061548 -15.76669,3.87159 -1.75361,1.329044 -1.95224,6.257069 -0.29353,7.282233 0.64575,0.399086 1.17408,0.281437 1.17408,-0.261442 0,-0.542878 2.33946,-1.677811 5.19878,-2.522069 6.79737,-2.00703 10.95621,-0.152601 14.1422,6.305762 2.75486,5.584515 3.27891,22.879169 0.92706,30.595673 -2.08351,6.836114 -7.92253,15.132863 -13.57615,19.290583 l -4.87987,3.58869 -2.05399,-2.66874 c -2.03588,-2.64522 -2.0542,-2.6153 -2.08007,3.39183 -0.0247,5.7141 0.13562,6.0428 2.80434,5.74986 1.55675,-0.17083 5.18266,-1.68918 8.05757,-3.37399 z m 14.93528,-47.474752 c -0.02,-9.820401 -5.30198,-17.788947 -11.97445,-18.064683 -2.94862,-0.121867 -3.21412,-0.284421 -1.11598,-0.683312 4.47222,-0.850243 9.23451,1.864775 11.45124,6.528428 2.04623,4.304951 3.76455,15.448302 2.38217,15.448302 -0.40504,0 -0.73937,-1.452929 -0.74298,-3.228735 z M 79.839045,87.437956 c -0.04539,-14.36787 -0.441633,-25.223316 -0.880568,-24.12321 -0.867505,2.174284 -0.463522,50.246584 0.422263,50.246584 0.297466,0 0.503692,-11.75552 0.458305,-26.123374 z M 131.28294,68.652597 c -0.20928,-6.618917 -0.38052,-1.203443 -0.38052,12.034373 0,13.237797 0.17119,18.653271 0.38052,12.034372 0.20928,-6.618916 0.20928,-17.449846 0,-24.068745 z m 18.48838,33.173013 c 4.40861,-2.724671 9.54137,-9.713655 11.81496,-16.08773 3.55073,-9.954562 0.88235,-30.522284 -4.32114,-33.307099 -3.29039,-1.760974 -8.24789,0.39176 -12.77431,5.547061 l -3.51686,4.005466 v 20.407794 c 0,20.273938 0.19651,21.347028 3.97073,21.684858 0.56952,0.0509 2.7415,-0.96168 4.82662,-2.25035 z M 77.036129,61.608076 c 2.87332,-2.744413 5.22633,-5.896222 5.228921,-7.00403 0.0054,-2.236218 6.238914,-9.139627 8.253002,-9.139627 0.705612,0 0.90596,-0.609977 0.445207,-1.355508 -0.53389,-0.863842 -0.320409,-1.035742 0.588623,-0.47394 1.892222,1.169456 8.510458,-1.623668 7.545747,-3.184563 -0.415723,-0.672661 -0.190037,-0.870971 0.503442,-0.442383 0.691339,0.427266 3.331339,-1.649954 5.866689,-4.61605 4.2617,-4.985795 5.25649,-5.516148 13.17761,-7.025437 11.28653,-2.150572 14.11979,-4.028427 13.60345,-9.016349 -0.5719,-5.524832 -1.51221,-7.249103 -5.6021,-10.2728982 l -3.64631,-2.6958451 0.70979,2.8107787 c 0.6638,2.6285686 0.60376,2.6689526 -0.92617,0.6230033 -1.49785,-2.0030097 -2.16215,-2.0624957 -7.86669,-0.7043789 -3.42689,0.8158815 -9.13656,2.5040932 -12.68817,3.7515822 -3.551606,1.247508 -11.513307,2.689145 -17.6927,3.203665 -6.179374,0.514503 -12.3719,1.645326 -13.761163,2.512938 -4.128976,2.578589 -5.374304,7.224462 -4.305683,16.063211 1.136345,9.399282 1.126713,12.761731 -0.06218,21.660484 -0.936658,7.011213 0.253955,10.295217 3.732534,10.295217 0.919504,0 4.022727,-2.245439 6.896065,-4.98987 z m -4.159068,-0.880567 c 0,-0.645733 0.528333,-1.174084 1.174084,-1.174084 0.64575,0 1.174084,0.528351 1.174084,1.174084 0,0.64575 -0.528334,1.174101 -1.174084,1.174101 -0.645751,0 -1.174084,-0.528351 -1.174084,-1.174101 z M 78.74748,54.85709 c 0,-0.645751 0.528333,-1.174084 1.174084,-1.174084 0.645751,0 1.174084,0.528333 1.174084,1.174084 0,0.64575 -0.528333,1.174083 -1.174084,1.174083 -0.645751,0 -1.174084,-0.528333 -1.174084,-1.174083 z m 1.174084,-7.562258 c 0,-1.006723 0.528333,-1.830413 1.174084,-1.830413 0.64575,0 1.174084,0.497152 1.174084,1.104788 0,0.607636 -0.528334,1.431326 -1.174084,1.830413 -0.645751,0.399104 -1.174084,-0.0981 -1.174084,-1.104788 z M 69.89356,44.212212 c -0.42564,-0.688708 -0.522097,-1.504 -0.214321,-1.811758 0.307741,-0.307776 0.872419,0.255724 1.254799,1.25219 0.793884,2.068874 0.11722,2.432777 -1.040478,0.559568 z m 17.072507,-3.444146 c 0,-0.645733 0.528351,-1.174084 1.174084,-1.174084 0.64575,0 1.174101,0.528351 1.174101,1.174084 0,0.64575 -0.528351,1.174084 -1.174101,1.174084 -0.645733,0 -1.174084,-0.528334 -1.174084,-1.174084 z M 99.293974,36.07173 c 0.399087,-0.64575 0.958606,-1.174083 1.243376,-1.174083 0.28476,0 0.51774,0.528333 0.51774,1.174083 0,0.645751 -0.55951,1.174084 -1.243379,1.174084 -0.683847,0 -0.916842,-0.528333 -0.517737,-1.174084 z M 77.072063,29.589065 c -1.244363,-0.941429 -1.98959,-1.984533 -1.6561,-2.31804 0.333507,-0.33349 1.565594,0.453551 2.737962,1.749001 2.496552,2.758655 2.092962,2.970921 -1.081862,0.569039 z m 15.17739,0.557406 c -1.636552,-0.741457 -0.924936,-0.847134 2.348168,-0.348749 2.582984,0.393297 4.916481,0.909175 5.185553,1.146387 1.008746,0.889323 -5.279812,0.223523 -7.533721,-0.797638 z M 70.934038,27.215452 c -0.38238,-0.996466 -0.365797,-2.141191 0.03681,-2.543833 0.40266,-0.402661 0.732093,0.104533 0.732093,1.126873 0,1.02243 0.660421,2.125449 1.467601,2.451165 1.149496,0.463826 1.141526,0.612282 -0.03681,0.684866 -0.827461,0.05093 -1.817315,-0.722605 -2.199694,-1.719071 z m 31.882192,-9.916018 c -1.90363,-0.807448 -1.64746,-0.95853 1.3532,-0.798049 2.03576,0.108823 3.45751,0.594199 3.15944,1.078503 -0.65646,1.066655 -1.45342,1.01714 -4.51264,-0.280454 z m 22.89464,-1.187147 c -1.05819,-0.683865 -1.203,-1.145314 -0.36281,-1.156107 0.76908,-0.0089 1.72486,0.510357 2.12394,1.156107 0.90089,1.457666 0.49444,1.457666 -1.76113,0 z m -4.25127,29.210752 4.55435,-1.204836 -0.74884,-6.371395 c -0.5907,-5.025858 -0.40288,-6.371413 0.88925,-6.371413 1.04132,0 1.92671,1.924744 2.43037,5.283386 1.07983,7.200893 3.32139,6.840439 2.81097,-0.452014 -0.34393,-4.913659 0.005,-6.064977 2.43604,-8.035716 2.12145,-1.719857 2.59408,-2.864957 1.87294,-4.537855 -0.89053,-2.065855 -1.00247,-2.078667 -1.45904,-0.166896 -0.69875,2.925855 -5.82763,5.26725 -14.54203,6.638626 -6.99231,1.100374 -7.88823,1.6073 -13.36513,7.562222 -3.41492,3.712932 -7.343741,6.74911 -9.392692,7.258592 l -3.522251,0.875814 2.935218,0.957225 c 3.48537,1.136648 18.657475,0.26884 25.100845,-1.435722 z m -9.83774,-5.815132 c 0,-5.038795 0.31657,-5.896419 2.05465,-5.56636 1.54816,0.293999 2.14286,1.762332 2.4125,5.956512 0.31818,4.9492 0.0904,5.56636 -2.05465,5.56636 -2.11693,0 -2.4125,-0.729789 -2.4125,-5.956512 z" />
  </g>
</svg>
