<?xml version="1.0" encoding="UTF-8" standalone="no"?>
<svg
   xmlns:dc="http://purl.org/dc/elements/1.1/"
   xmlns:cc="http://creativecommons.org/ns#"
   xmlns:rdf="http://www.w3.org/1999/02/22-rdf-syntax-ns#"
   xmlns:svg="http://www.w3.org/2000/svg"
   xmlns="http://www.w3.org/2000/svg"
   xmlns:sodipodi="http://sodipodi.sourceforge.net/DTD/sodipodi-0.dtd"
   xmlns:inkscape="http://www.inkscape.org/namespaces/inkscape"
   width="62.940113mm"
   height="135.46666mm"
   viewBox="0 0 62.940113 135.46666"
   version="1.1"
   id="svg3704"
   inkscape:version="1.0.2-2 (e86c870879, 2021-01-15)"
   sodipodi:docname="sodacan.svg">
  <defs
     id="defs3698" />
  <sodipodi:namedview
     id="base"
     pagecolor="#ffffff"
     bordercolor="#666666"
     borderopacity="1.0"
     inkscape:pageopacity="0.0"
     inkscape:pageshadow="2"
     inkscape:zoom="0.35"
     inkscape:cx="176.98358"
     inkscape:cy="499.97831"
     inkscape:document-units="mm"
     inkscape:current-layer="layer1"
     inkscape:document-rotation="0"
     showgrid="false"
     inkscape:window-width="1366"
     inkscape:window-height="728"
     inkscape:window-x="0"
     inkscape:window-y="0"
     inkscape:window-maximized="0" />
  <metadata
     id="metadata3701">
    <rdf:RDF>
      <cc:Work
         rdf:about="">
        <dc:format>image/svg+xml</dc:format>
        <dc:type
           rdf:resource="http://purl.org/dc/dcmitype/StillImage" />
        <dc:title></dc:title>
      </cc:Work>
    </rdf:RDF>
  </metadata>
  <g
     inkscape:label="Layer 1"
     inkscape:groupmode="layer"
     id="layer1"
     transform="translate(-59.006427,-15.88074)">
    <path
       id="path2116"
       style="fill:#000000;stroke-width:1.01516"
       d="M 83.081919,150.80536 C 72.576581,149.26897 63.935213,144.19007 60.438548,137.49692 59.264449,135.24951 59.006427,126.07317 59.006427,86.562877 V 38.370103 l 2.537913,-3.01613 c 1.649815,-1.96069 2.537897,-4.260204 2.537897,-6.571275 0,-7.61896 10.807733,-12.901958 26.394242,-12.901958 15.627201,0 26.411961,5.350099 26.602851,13.19712 0.0521,2.141983 1.03576,4.69272 2.47681,6.422659 l 2.3904,2.869584 v 48.497624 48.497613 l -3.00269,4.14509 c -6.46723,8.92774 -20.920966,13.48005 -35.861931,11.29493 z m 8.134784,-1.53644 c -0.337342,-0.33733 -1.212911,-0.37339 -1.945734,-0.08 -0.809827,0.32405 -0.569282,0.56461 0.613331,0.61331 1.070149,0.044 1.669729,-0.19584 1.332403,-0.53317 z m 6.365925,-1.41699 -2.537913,-0.81278 2.537913,-0.10692 c 2.891682,-0.12174 10.521132,-2.10658 9.993022,-2.59974 -0.19194,-0.17924 -3.31834,0.30136 -6.94754,1.068 -3.629212,0.76664 -8.654265,1.47788 -11.166793,1.58052 l -4.568236,0.18662 5.583398,0.68424 c 8.145042,0.99815 10.222861,0.99815 7.106149,0 z m 8.584862,-5.14654 c 3.14995,-1.17855 6.74831,-3.12945 7.99635,-4.33533 1.24803,-1.20588 1.81946,-1.84989 1.26983,-1.43114 -0.54964,0.41876 -1.82162,0.76137 -2.82663,0.76137 -1.729,0 -1.82729,-2.17236 -1.82729,-40.380621 0,-36.653177 0.16227,-40.612347 1.75806,-42.890633 0.96694,-1.3805 1.6582,-2.621344 1.53613,-2.757415 -0.12206,-0.136117 0.53611,-1.837072 1.46261,-3.779978 1.35368,-2.838699 1.45504,-4.036344 0.51597,-6.097352 -0.64273,-1.410643 -1.86363,-2.564796 -2.71311,-2.564796 -0.84947,0 -1.5445,-0.468561 -1.5445,-1.041242 0,-0.605992 -1.20503,-0.418085 -2.88284,0.449557 -7.44927,3.852146 -24.15174,4.489919 -33.473925,1.278157 -2.318549,-0.798796 -3.975192,-1.06349 -3.681451,-0.588224 1.094205,1.770481 11.218771,3.965026 18.650241,4.04254 4.225796,0.04403 6.998028,0.332104 6.160514,0.64006 -2.867576,1.05439 -5.07581,3.65517 -5.07581,5.978122 0,2.421526 3.386134,5.483868 6.063068,5.483312 1.370612,-2.94e-4 1.518641,4.970546 1.274913,42.813057 -0.188587,29.281326 -0.628966,43.239006 -1.393262,44.159926 -0.734059,0.88449 -3.774384,1.38124 -8.860716,1.4477 -5.729264,0.0749 -7.083128,0.32947 -5.205298,0.97886 3.986069,1.37847 16.502125,0.18934 22.797146,-2.16593 z m -39.949759,-4.53284 -3.150656,-3.58838 -0.07772,-38.794668 c -0.0428,-21.337064 -0.187783,-39.479887 -0.322371,-40.317401 -0.134572,-0.837514 0.07478,-2.893223 0.465147,-4.568236 0.429055,-1.84078 0.802303,1.773323 0.943581,9.136472 0.128546,6.700069 0.565527,16.521778 0.971066,21.826005 0.63836,8.349619 0.759367,6.953005 0.901525,-10.405422 0.09038,-11.027218 0.529683,-20.049467 0.976351,-20.049467 0.446668,0 1.246113,0.415335 1.776537,0.922986 1.674782,1.602876 11.822616,4.156748 16.12231,4.057434 3.708134,-0.08575 3.452061,-0.230627 -2.506085,-1.418832 C 66.496186,51.817873 59.9204,45.250168 64.200782,36.878639 c 1.09487,-2.141334 1.068759,-2.155239 -0.761376,-0.405292 -1.790087,1.711661 -1.9108,4.492128 -2.17792,50.172313 l -0.282771,48.36022 3.273624,3.37753 c 4.36899,4.50766 5.958516,4.33712 1.96534,-0.21086 z M 95.552288,96.078608 c 0,-16.421211 -0.380695,-26.5097 -1.015162,-26.901813 -0.667236,-0.412369 -1.015161,8.807504 -1.015161,26.901813 0,18.094322 0.347925,27.314202 1.015161,26.901832 0.634467,-0.39213 1.015162,-10.4806 1.015162,-26.901832 z M 119.91621,70.669154 v -23.37913 l -3.03301,2.242379 c -1.66815,1.233321 -2.82124,2.454157 -2.56244,2.712965 0.25882,0.258808 1.09592,-0.04836 1.86023,-0.682749 1.16038,-0.963033 1.4988,1.232409 2.05115,13.306246 0.36381,7.952748 0.66316,17.771537 0.6652,21.8195 0.002,4.047963 0.23213,7.35992 0.5113,7.35992 0.27917,0 0.50757,-10.520604 0.50757,-23.379131 z M 108.24184,37.087481 c 2.79169,-1.41378 5.76104,-3.7943 6.59856,-5.290059 6.39871,-11.427845 -25.562834,-19.55138 -42.642135,-10.838169 -10.742116,5.480222 -8.307334,13.402223 5.503134,17.905414 2.666521,0.869481 7.950229,1.252278 14.805404,1.072637 9.052127,-0.237224 11.424487,-0.666897 15.735037,-2.849823 z m -21.064635,1.407646 c 1.814591,-0.225188 4.783953,-0.225188 6.598562,0 1.814591,0.225188 0.329924,0.409448 -3.299288,0.409448 -3.629198,0 -5.113879,-0.18426 -3.299274,-0.409448 z m -8.121311,-0.953114 c 0.697921,-0.281628 1.839992,-0.281628 2.537913,0 0.697921,0.281613 0.126847,0.512039 -1.268964,0.512039 -1.395842,0 -1.96687,-0.230426 -1.268949,-0.512039 z m 20.303254,0 c 0.697932,-0.281628 1.839992,-0.281628 2.537912,0 0.69792,0.281613 0.12685,0.512039 -1.26895,0.512039 -1.395855,0 -1.966883,-0.230426 -1.268962,-0.512039 z m -25.63285,-1.527525 c -6.513754,-3.602623 -8.290569,-8.136189 -4.524558,-11.544401 2.018056,-1.826303 2.054488,-1.826056 1.350232,0.0093 -0.55652,1.450273 -0.390676,1.690031 0.717682,1.037534 0.802983,-0.472733 0.615138,0.09456 -0.424033,1.280675 -2.645092,3.019097 -1.783336,5.427026 2.889283,8.073384 2.228628,1.262181 3.595223,2.288498 3.036881,2.280711 -0.558343,-0.0077 -1.928817,-0.519485 -3.045486,-1.137111 z m 2.537897,-1.860818 c -1.855689,-1.199221 -0.25286,-1.199221 2.537912,0 1.338738,0.575276 1.511642,0.891467 0.507574,0.928269 -0.837499,0.03059 -2.207972,-0.387014 -3.045486,-0.928269 z m 33.754175,-0.605003 c 2.47208,-2.912119 2.22148,-4.988623 -0.89828,-7.44261 -1.47115,-1.157212 -2.24774,-2.104006 -1.72578,-2.104006 0.52197,0 1.49722,0.548192 2.16724,1.218194 1.62069,1.62069 1.57545,-0.402001 -0.0508,-2.268907 -0.69792,-0.801237 -0.0124,-0.356145 1.52275,0.989082 3.99146,3.497005 3.74046,6.858171 -0.76137,10.19576 -1.97307,1.462788 -1.98022,1.446225 -0.25379,-0.587513 z M 76.910435,30.854398 c -1.381875,-1.256264 -2.7955,-3.270705 -3.141402,-4.476539 -0.52222,-1.82037 -0.06242,-2.363958 2.709643,-3.203326 1.931087,-0.584701 5.478506,-0.680555 8.414403,-0.227336 5.063157,0.781615 5.057455,0.783917 -2.284109,0.919216 -5.421232,0.09996 -7.359935,0.49529 -7.359935,1.501043 0,2.794279 3.645683,4.723712 9.216397,4.877674 3.359528,0.09286 4.317061,0.321011 2.457972,0.58569 -1.675013,0.238476 -3.479469,0.855267 -4.009893,1.370643 -1.54194,1.4982 -3.309686,1.101529 -6.003076,-1.347065 z m 12.043307,1.358529 c 1.116672,-0.529126 3.51499,-0.99415 5.329596,-1.033378 4.1144,-0.08899 4.161416,-1.395734 0.193036,-5.364112 l -3.106236,-3.106236 5.390348,0.707113 c 8.603624,1.128629 12.749684,5.111547 7.978794,7.664832 -1.08887,0.582755 -5.5429,1.292263 -9.897829,1.576688 -5.3903,0.352035 -7.269876,0.21 -5.887709,-0.444907 z m -7.343294,-4.960288 c -1.035326,-1.515365 -1.309892,-1.540595 -2.232678,-0.205102 -0.905743,1.310849 -1.054328,1.27553 -1.067707,-0.253787 -0.01962,-2.238254 3.865186,-2.411467 4.709962,-0.210016 0.869111,2.264828 -0.02827,2.69067 -1.409577,0.668905 z m 4.938487,0.46286 c -1.405575,-1.693615 -0.487628,-2.698286 2.465389,-2.698286 2.196106,0 3.969228,2.230359 2.745766,3.453821 -1.076531,1.076531 -4.048243,0.645684 -5.211155,-0.755535 z m 4.667768,-0.266131 c -0.337342,-0.337326 -1.212911,-0.373387 -1.945734,-0.08003 -0.809827,0.324055 -0.569282,0.564616 0.613331,0.613315 1.070149,0.04403 1.669729,-0.195848 1.332403,-0.533174 z m 9.221067,-5.15595 c 0.73282,-0.293247 1.60839,-0.257186 1.94573,0.08003 0.33732,0.337327 -0.26225,0.57727 -1.3324,0.53319 -1.182616,-0.04867 -1.423162,-0.289261 -0.61333,-0.613331 z M 86.669618,21.232214 c 2.093778,-0.219024 5.519944,-0.219024 7.613722,0 2.093778,0.219008 0.38068,0.3982 -3.806861,0.3982 -4.187541,0 -5.900639,-0.179192 -3.806861,-0.3982 z" />
  </g>
</svg>
